<?xml version="1.0" encoding="UTF-8" standalone="no" ?>
<!DOCTYPE svg PUBLIC "-//W3C//DTD SVG 1.1//EN" "http://www.w3.org/Graphics/SVG/1.1/DTD/svg11.dtd">
<svg xmlns="http://www.w3.org/2000/svg" xmlns:xlink="http://www.w3.org/1999/xlink" version="1.1" width="400" height="100" viewBox="0 0 400 100" xml:space="preserve">
<desc>Created with Fabric.js 5.2.4</desc>
<defs>
</defs>
<rect x="0" y="0" width="100%" height="100%" fill="transparent"></rect>
<g transform="matrix(0 0 0 0 0 0)" id="0f844786-e241-46d4-9c90-e11a7b024ace"  >
</g>
<g transform="matrix(1 0 0 1 200 50)" id="a7b19aa6-5e2c-4736-8c12-f137e625ff34"  >
<rect style="stroke: none; stroke-width: 1; stroke-dasharray: none; stroke-linecap: butt; stroke-dashoffset: 0; stroke-linejoin: miter; stroke-miterlimit: 4; fill: rgb(255,255,255); fill-rule: nonzero; opacity: 1; visibility: hidden;" vector-effect="non-scaling-stroke"  x="-200" y="-50" rx="0" ry="0" width="400" height="100" />
</g>
<g transform="matrix(0.85 0 0 0.85 200 50)"  >
<g style=""   >
		<g transform="matrix(0.97 0 0 0.97 -166.97 0.21)" id="SvgjsG3271"  >
<rect style="stroke: none; stroke-width: 1; stroke-dasharray: none; stroke-linecap: butt; stroke-dashoffset: 0; stroke-linejoin: miter; stroke-miterlimit: 4; fill: rgb(255,255,255); fill-rule: nonzero; opacity: 1;" vector-effect="non-scaling-stroke"  x="-49" y="-54" rx="10" ry="10" width="98" height="108" />
</g>
		<g transform="matrix(1.68 0 0 1.68 -167.15 0.31)"  >
<path style="stroke: none; stroke-width: 1; stroke-dasharray: none; stroke-linecap: butt; stroke-dashoffset: 0; stroke-linejoin: miter; stroke-miterlimit: 4; fill: rgb(61,90,241); fill-rule: nonzero; opacity: 1;" vector-effect="non-scaling-stroke"  transform=" translate(-21.6, -38.76)" d="M 40.185 57.4631 C 40.55807 59.005599999999994 35.7819 60.8343 34.8737 59.5657 C 32.7903 55.8323 30.5556 52.2373 28.1477 48.8237 L 15.6097 51.3628 C 15.516244 51.411081 15.43105 51.453034 15.3554 51.49053 C 14.94038 51.68055 14.76876 51.73457 14.560939999999999 51.81022 C 14.20375 51.9335 13.96797 52.00276 13.742959999999998 52.06886 C 13.592319999999999 52.112688 13.461359999999999 52.14767 13.3266 52.18388 C 11.5877 54.76558 9.905299999999999 57.387280000000004 8.2922 60.075680000000006 C 7.594999999999999 61.18468000000001 2.8344999999999994 59.314280000000004 3.004199999999999 57.91668000000001 C 4.455799999999999 51.878280000000004 6.2684999999999995 45.85468000000001 8.264199999999999 39.953680000000006 C 9.340799999999998 36.761880000000005 10.4468 33.61348 11.543099999999999 30.489280000000008 C 10.7442 29.780020000000007 9.939499999999999 29.07578000000001 9.122799999999998 28.381080000000008 C 8.682349999999998 28.104640000000007 11.295199999999998 25.37608000000001 14.253799999999998 22.672380000000008 C 14.265869999999998 22.636814000000008 14.278584999999998 22.60124400000001 14.290655999999998 22.565680000000008 C 14.300206799999998 22.510367000000006 14.363783999999999 22.486870000000007 14.461635999999999 22.484350000000006 C 17.759036 19.489550000000005 21.403036 16.595750000000006 21.704836 17.183650000000007 C 25.933936 23.313250000000007 29.832436 29.824650000000005 32.949836 36.63265000000001 C 36.088336 43.43425000000001 38.417736 50.45565000000001 40.184636 57.46265000000001 z M 19.916 42.903999999999996 L 24.0072 43.36806 C 23.79304 43.10556 23.583920000000003 42.83796 23.36718 42.57864 C 22.8028 41.89794 22.22758 41.22744 21.64598 40.56454 C 21.065080000000002 41.34502 20.49048 42.12554 19.91598 42.90404 z" stroke-linecap="round" />
</g>
		<g transform="matrix(1.54 0 0 1.54 58.31 0.52)"  >
<path style="stroke: none; stroke-width: 1; stroke-dasharray: none; stroke-linecap: butt; stroke-dashoffset: 0; stroke-linejoin: miter; stroke-miterlimit: 4; fill: rgb(255,255,255); fill-rule: nonzero; opacity: 1;" vector-effect="non-scaling-stroke"  transform=" translate(-103.47, -26)" d="M 22.395 37.0782 C 22.73348 38.045320000000004 22.358164 39.118100000000005 21.49044 39.663000000000004 C 20.623 40.20816000000001 19.49394 40.080760000000005 18.76924 39.35636 L 10.50644 31.093560000000004 C 9.6486 30.236000000000004 9.6486 28.845560000000003 10.50644 27.987960000000005 C 11.363999999999999 27.130400000000005 12.754439999999999 27.130400000000005 13.61204 27.987960000000005 L 15.07024 29.446160000000006 L 12.05944 20.843360000000004 L 5.86944 38.529360000000004 C 5.55264 39.43412000000001 4.70384 40.000460000000004 3.79664 40.000460000000004 C 3.5559 40.000733440000005 3.3113200000000003 39.960655 3.07112 39.876670000000004 C 1.92642 39.476150000000004 1.32332 38.22327000000001 1.7238200000000001 37.07867 L 9.98662 13.470670000000002 C 10.2949 12.589750000000002 11.12612 12.000070000000003 12.05942 12.000070000000003 C 12.992719999999998 12.000070000000003 13.82392 12.589710000000002 14.13222 13.470670000000002 z M 32.4344 19.412 C 36.834799999999994 19.412 40.4144 22.9922 40.4144 27.3924 L 40.4144 37.8044 C 40.4144 39.0172 39.43112 40.0004 38.2184 40.0004 C 37.005680000000005 40.0004 36.022400000000005 39.01712 36.022400000000005 37.8044 L 36.022400000000005 27.392400000000002 C 36.022400000000005 25.414 34.413000000000004 23.8043 32.43430000000001 23.8043 C 30.45560000000001 23.8043 28.846200000000007 25.413700000000002 28.846200000000007 27.392400000000002 L 28.846200000000007 37.8044 C 28.846200000000007 39.0172 27.862920000000006 40.0004 26.650200000000005 40.0004 C 25.437480000000004 40.0004 24.454200000000004 39.01712 24.454200000000004 37.8044 L 24.454200000000004 21.6084 C 24.454200000000004 20.395599999999998 25.437480000000004 19.412399999999998 26.650200000000005 19.412399999999998 C 27.436120000000006 19.412399999999998 28.123500000000007 19.8266 28.511700000000005 20.4473 C 29.670900000000003 19.789859999999997 31.009200000000003 19.412399999999998 32.434400000000004 19.412399999999998 z M 60.78 19.412 C 61.9928 19.412 62.976 20.39528 62.976 21.608 L 62.976 29.706000000000003 C 62.976 35.382400000000004 58.358399999999996 40 52.682 40 C 47.00560000000001 40 42.388000000000005 35.3824 42.388000000000005 29.706 L 42.388000000000005 21.607999999999997 C 42.388000000000005 20.395199999999996 43.371280000000006 19.411999999999995 44.584 19.411999999999995 C 45.79672 19.411999999999995 46.78 20.395279999999996 46.78 21.607999999999997 L 46.78 29.705999999999996 C 46.78 32.9603 49.4276 35.608 52.682 35.608 C 55.936400000000006 35.608 58.584 32.9604 58.584 29.705999999999996 L 58.584 21.607999999999997 C 58.584 20.395199999999996 59.567280000000004 19.411999999999995 60.78 19.411999999999995 z M 72.9024 19.412 C 77.3028 19.412 80.8824 22.9922 80.8824 27.3924 L 80.8824 37.8044 C 80.8824 39.0172 79.89912000000001 40.0004 78.6864 40.0004 C 77.47368 40.0004 76.49040000000001 39.01712 76.49040000000001 37.8044 L 76.49040000000001 27.392400000000002 C 76.49040000000001 25.414 74.88100000000001 23.8043 72.90230000000001 23.8043 C 70.92360000000001 23.8043 69.31420000000001 25.413700000000002 69.31420000000001 27.392400000000002 L 69.31420000000001 37.8044 C 69.31420000000001 39.0172 68.33092000000002 40.0004 67.11820000000002 40.0004 C 65.90548000000001 40.0004 64.92220000000002 39.01712 64.92220000000002 37.8044 L 64.92220000000002 21.6084 C 64.92220000000002 20.395599999999998 65.90548000000001 19.412399999999998 67.11820000000002 19.412399999999998 C 67.90412000000002 19.412399999999998 68.59150000000001 19.8266 68.97970000000002 20.4473 C 70.13890000000002 19.789859999999997 71.47720000000002 19.412399999999998 72.90240000000003 19.412399999999998 z M 97.324 33.8792 C 98.18156 33.02164 99.5722 33.02148 100.4298 33.879317189999995 C 101.28764 34.736877189999994 101.28764 36.12731718999999 100.4298 36.98491719 C 98.4855 38.929217189999996 95.9006 39.999817189999995 93.1506 39.999817189999995 C 87.4742 39.999817189999995 82.8566 35.38221718999999 82.8566 29.705817189999994 C 82.8566 24.029417189999997 87.4742 19.411817189999994 93.1506 19.411817189999994 C 95.90039999999999 19.411817189999994 98.4854 20.482417189999993 100.4294 22.427017189999994 C 101.28724 23.284577189999993 101.28724 24.675017189999995 100.4294 25.532617189999993 C 99.57184 26.390177189999992 98.1814 26.390177189999992 97.3238 25.532617189999993 C 96.2093 24.417817189999994 94.727 23.804017189999993 93.15060000000001 23.804017189999993 C 89.89630000000001 23.804017189999993 87.24860000000001 26.451617189999993 87.24860000000001 29.706017189999994 C 87.24860000000001 32.960417189999994 89.89620000000001 35.60801718999999 93.15060000000001 35.60801718999999 C 94.72710000000001 35.60801718999999 96.20920000000001 34.99421718999999 97.3238 33.87941718999999 z M 105.22600000000001 19.412 C 106.43880000000001 19.412 107.42200000000001 20.39528 107.42200000000001 21.608 L 107.42200000000001 37.804 C 107.42200000000001 39.0168 106.43872000000002 40 105.22600000000001 40 C 104.01328000000001 40 103.03000000000002 39.01672 103.03000000000002 37.804 L 103.03000000000002 21.608 C 103.03000000000002 20.3952 104.01328000000001 19.412 105.22600000000001 19.412 z M 103.1974 15.036000000000001 C 103.142516 14.904240000000001 103.101344 14.7642 103.07388 14.624200000000002 C 103.043685 14.484200000000001 103.029972 14.338690000000001 103.029972 14.195960000000001 C 103.029972 14.053230000000001 103.043683 13.907720000000001 103.07388 13.76772 C 103.101341 13.62772 103.142512 13.487720000000001 103.1974 13.355960000000001 C 103.25228800000001 13.224200000000002 103.32092 13.095180000000001 103.40052 12.97713 C 103.480128 12.85635 103.57072 12.74381 103.67228 12.64225 C 103.77384 12.540690000000001 103.88638 12.4501 104.00716 12.37049 C 104.12521 12.290882 104.25422999999999 12.22225 104.38598999999999 12.16737 C 104.51774999999999 12.11249 104.65775 12.071314 104.79775 12.04385 C 105.51146999999999 11.898340000000001 106.26915 12.134438000000001 106.77974999999999 12.642290000000001 C 106.87857799999999 12.74385 106.97189999999999 12.856390000000001 107.05151 12.977170000000001 C 107.13111799999999 13.095220000000001 107.19975 13.224240000000002 107.25462999999999 13.356000000000002 C 107.30950999999999 13.487760000000002 107.350686 13.627760000000002 107.37814999999999 13.76776 C 107.408345 13.907760000000001 107.42205799999999 14.053270000000001 107.42205799999999 14.196000000000002 C 107.42205799999999 14.338730000000002 107.40834699999999 14.484240000000002 107.37814999999999 14.624240000000002 C 107.35068899999999 14.764240000000003 107.309518 14.904240000000001 107.25462999999999 15.036000000000001 C 107.19974199999999 15.167760000000001 107.13110999999999 15.296780000000002 107.05151 15.414830000000002 C 106.971902 15.535610000000002 106.87858 15.648150000000003 106.77974999999999 15.749710000000002 C 106.67818999999999 15.851270000000001 106.56564999999999 15.941860000000002 106.44487 16.02147 C 106.32682 16.101078 106.1978 16.169710000000002 106.06604 16.22459 C 105.93428 16.279469999999996 105.79428 16.320646 105.65428 16.34811 C 105.51428 16.378304999999997 105.36877 16.392017999999997 105.22604 16.392017999999997 C 105.08331 16.392017999999997 104.9378 16.378306999999996 104.7978 16.34811 C 104.6578 16.320649 104.5178 16.279477999999997 104.38604 16.22459 C 104.25428 16.169702 104.12526 16.10107 104.00721 16.02147 C 103.88643 15.941862 103.77389 15.851270000000001 103.67233 15.74971 C 103.57077000000001 15.64815 103.48018 15.53561 103.40057 15.41483 C 103.32096200000001 15.29678 103.25233 15.16776 103.19745 15.036 z M 127.796 19.412 C 129.0088 19.412 129.99200000000002 20.39528 129.99200000000002 21.608 L 129.99200000000002 37.804 C 129.99200000000002 39.0168 129.00872 40 127.79600000000002 40 C 126.68890000000002 40 125.77590000000002 39.18032 125.62440000000002 38.115 C 123.94740000000002 39.3006 121.90340000000002 40 119.69800000000002 40 C 114.02160000000002 40 109.40400000000002 35.3824 109.40400000000002 29.706 C 109.40400000000002 24.029600000000002 114.02160000000002 19.412 119.69800000000002 19.412 C 121.90340000000002 19.412 123.94720000000002 20.111439999999998 125.62440000000002 21.297 C 125.77592000000003 20.2316 126.68890000000002 19.412 127.79600000000002 19.412 z M 119.69800000000001 35.608 C 122.95230000000001 35.608 125.60000000000001 32.9604 125.60000000000001 29.705999999999996 C 125.60000000000001 26.451599999999992 122.95240000000001 23.803999999999995 119.69800000000001 23.803999999999995 C 116.4436 23.803999999999995 113.796 26.451599999999996 113.796 29.705999999999996 C 113.796 32.96039999999999 116.4436 35.608 119.69800000000001 35.608 z M 153.34799999999998 20.688 C 153.34799999999998 22.6312 152.69392 24.4958 151.5322 25.9996 C 152.6942 27.503600000000002 153.3483 29.368100000000002 153.3483 31.3112 C 153.3483 36.102 149.4509 39.9996 144.6599 39.9996 L 142.3974 39.9996 C 141.81488000000002 39.9996 141.2563 39.768190000000004 140.8445 39.35644 L 132.5817 31.09364 C 131.72386 30.23608 131.72414 28.84564 132.5817 27.98804 C 133.43926000000002 27.130440000000004 134.8297 27.130480000000002 135.68730000000002 27.98804 L 143.3069 35.60764 L 144.65970000000002 35.60764 C 147.0285 35.60764 148.9557 33.680240000000005 148.9557 31.311640000000004 C 148.9557 29.916040000000002 148.27190000000002 28.602040000000002 147.1267 27.796040000000005 C 146.54202 27.384840000000004 146.19418 26.714740000000006 146.19418 25.999940000000006 C 146.19418 25.285140000000006 146.54199 24.615040000000008 147.1267 24.203840000000007 C 148.2719 23.398160000000008 148.9557 22.083840000000006 148.9557 20.688240000000008 C 148.9557 18.319440000000007 147.0283 16.392240000000008 144.65970000000002 16.392240000000008 L 136.3308 16.392240000000008 L 136.3308 20.36904000000001 L 143.95000000000002 27.98864000000001 C 144.80784000000003 28.84620000000001 144.80784000000003 30.236640000000012 143.95000000000002 31.09424000000001 C 143.09244 31.95208000000001 141.70200000000003 31.95208000000001 140.8444 31.09424000000001 L 132.5816 22.831440000000008 C 132.16984000000002 22.419680000000007 131.93844 21.861040000000006 131.93844 21.278540000000007 L 131.93844 14.196140000000007 C 131.93844 12.983340000000007 132.92172000000002 12.000140000000007 134.13444 12.000140000000007 L 144.65944000000002 12.000140000000007 C 149.45024 12.000140000000007 153.34784000000002 15.897540000000006 153.34784000000002 20.688540000000007 z M 165.566 19.412 C 171.2424 19.412 175.86 24.0296 175.86 29.706 C 175.86 30.9188 174.87672 31.902 173.66400000000002 31.902 L 160.08800000000002 31.902 C 160.96092000000002 34.072 163.08750000000003 35.6079 165.56640000000002 35.6079 C 167.14290000000003 35.6079 168.62500000000003 34.9941 169.73960000000002 33.8793 C 170.59744000000003 33.02174 171.98760000000001 33.02198 172.8454 33.8793 C 173.70324000000002 34.737140000000004 173.70296000000002 36.1275 172.8454 36.9851 C 170.9008 38.9294 168.31580000000002 40 165.5662 40 C 159.8898 40 155.2722 35.3824 155.2722 29.706 C 155.2722 24.029600000000002 159.8898 19.412 165.5662 19.412 z M 160.0876 27.509999999999998 L 171.0446 27.509999999999998 C 170.17168 25.339999999999996 168.0451 23.8041 165.5662 23.8041 C 163.08730000000003 23.8041 160.9606 25.34 160.08780000000002 27.509999999999998 z M 197.355 19.412 C 201.7558 19.412 205.3354 22.9922 205.3354 27.3924 L 205.3354 37.8044 C 205.3354 39.0172 204.35211999999999 40.0004 203.1394 40.0004 C 201.92668 40.0004 200.9434 39.01712 200.9434 37.8044 L 200.9434 27.392400000000002 C 200.9434 25.414 199.3337 23.8043 197.355 23.8043 C 195.3766 23.8043 193.7669 25.413700000000002 193.7669 27.392400000000002 L 193.7669 37.8044 C 193.7669 39.0172 192.78361999999998 40.0004 191.5709 40.0004 C 190.35818 40.0004 189.3749 39.01712 189.3749 37.8044 L 189.3749 27.392400000000002 C 189.3749 25.414 187.7655 23.8043 185.7868 23.8043 C 183.8081 23.8043 182.1984 25.413700000000002 182.1984 27.392400000000002 L 182.1984 37.8044 C 182.1984 39.0172 181.21511999999998 40.0004 180.0024 40.0004 C 178.78968 40.0004 177.8064 39.01712 177.8064 37.8044 L 177.8064 21.6084 C 177.8064 20.395599999999998 178.78968 19.412399999999998 180.0024 19.412399999999998 C 180.78832 19.412399999999998 181.476 19.8266 181.8639 20.4473 C 183.0234 19.789859999999997 184.3617 19.412399999999998 185.7869 19.412399999999998 C 188.0617 19.412399999999998 190.1157 20.371 191.5709 21.903599999999997 C 193.0258 20.371 195.07989999999998 19.412399999999998 197.3549 19.412399999999998 z" stroke-linecap="round" />
</g>
</g>
</g>
</svg>