<svg version="1.2" xmlns="http://www.w3.org/2000/svg" viewBox="0 0 400 100" width="400" height="100"><style>tspan{white-space:pre}.a{font-size: 24px;fill: #ffffff;font-weight: 400;font-family: "DelaGothicOne-Regular", "Dela Gothic One"}.b{fill:#fff}.c{fill:#3d5af1}</style><text style="transform:matrix(1,0,0,1,151,81)" ><tspan x="0" y="0" class="a">E</tspan><tspan  y="0" class="a"> </tspan><tspan  y="0" class="a"> </tspan><tspan  y="0" class="a">S</tspan><tspan  y="0" class="a"> </tspan><tspan  y="0" class="a"> </tspan><tspan  y="0" class="a">T</tspan><tspan  y="0" class="a"> </tspan><tspan  y="0" class="a"> </tspan><tspan  y="0" class="a">O</tspan><tspan  y="0" class="a"> </tspan><tspan  y="0" class="a"> </tspan><tspan  y="0" class="a">Q</tspan><tspan  y="0" class="a"> </tspan><tspan  y="0" class="a"> </tspan><tspan  y="0" class="a">U</tspan><tspan  y="0" class="a"> </tspan><tspan  y="0" class="a"> </tspan><tspan  y="0" class="a"> </tspan><tspan  y="0" class="a">E
</tspan></text><path class="b" d="m17.7 13.9c0-4.6 3.7-8.2 8.2-8.2h64.3c4.6 0 8.3 3.6 8.3 8.2v72.6c0 4.5-3.7 8.2-8.3 8.2h-64.3c-4.5 0-8.2-3.7-8.2-8.2z"/><path fill-rule="evenodd" class="c" d="m84.5 77c0.5 2.2-6.3 4.8-7.6 3-3-5.4-6.2-10.5-9.6-15.4l-17.9 3.7q-0.2 0.1-0.4 0.1c-0.6 0.3-0.8 0.4-1.1 0.5-0.5 0.2-0.9 0.3-1.2 0.4q-0.3 0.1-0.6 0.1-3.7 5.6-7.2 11.3c-1 1.6-7.8-1.1-7.5-3.1 2-8.6 4.6-17.2 7.5-25.6q2.3-6.9 4.7-13.5-1.7-1.6-3.5-3.1c-0.6-0.4 3.1-4.2 7.3-8.1q0.1-0.1 0.1-0.2 0-0.1 0.2-0.1c4.7-4.3 9.9-8.4 10.4-7.5 6 8.7 11.6 18 16 27.7 4.5 9.7 7.8 19.8 10.4 29.8zm-29-20.8l5.9 0.6q-0.5-0.5-1-1.1-1.2-1.4-2.4-2.9-1.3 1.7-2.5 3.4z"/><path fill-rule="evenodd" class="b" d="m143.4 54.9c0.5 1.3 0 2.7-1.1 3.4-1.2 0.7-2.7 0.6-3.6-0.4l-10.8-10.8c-1.1-1.1-1.1-2.9 0-4.1 1.1-1.1 2.9-1.1 4 0l1.9 2-3.9-11.3-8.1 23.1c-0.4 1.2-1.5 2-2.7 2q-0.5 0-1-0.2c-1.5-0.5-2.2-2.2-1.7-3.7l10.8-30.9c0.4-1.1 1.5-1.9 2.7-1.9 1.2 0 2.3 0.8 2.7 1.9zm13.2-23.1c5.7 0 10.4 4.7 10.4 10.5v13.6c0 1.6-1.3 2.9-2.9 2.9-1.6 0-2.8-1.3-2.8-2.9v-13.6c0-2.6-2.1-4.7-4.7-4.7-2.6 0-4.7 2.1-4.7 4.7v13.6c0 1.6-1.3 2.9-2.9 2.9-1.6 0-2.9-1.3-2.9-2.9v-21.2c0-1.6 1.3-2.9 2.9-2.9 1 0 1.9 0.6 2.4 1.4 1.5-0.9 3.3-1.4 5.2-1.4zm37.1 0c1.6 0 2.8 1.3 2.8 2.9v10.6c0 7.4-6 13.5-13.4 13.5-7.5 0-13.5-6.1-13.5-13.5v-10.6c0-1.6 1.3-2.9 2.9-2.9 1.6 0 2.8 1.3 2.8 2.9v10.6c0 4.3 3.5 7.7 7.8 7.7 4.2 0 7.7-3.4 7.7-7.7v-10.6c0-1.6 1.3-2.9 2.9-2.9zm15.8 0c5.8 0 10.5 4.7 10.5 10.5v13.6c0 1.6-1.3 2.9-2.9 2.9-1.6 0-2.9-1.3-2.9-2.9v-13.6c0-2.6-2.1-4.7-4.7-4.7-2.6 0-4.7 2.1-4.7 4.7v13.6c0 1.6-1.2 2.9-2.8 2.9-1.6 0-2.9-1.3-2.9-2.9v-21.2c0-1.6 1.3-2.9 2.9-2.9 1 0 1.9 0.6 2.4 1.4 1.5-0.9 3.3-1.4 5.1-1.4zm32 19c1.1-1.2 2.9-1.2 4.1 0 1.1 1.1 1.1 2.9 0 4-2.6 2.6-6 4-9.6 4-7.4 0-13.4-6.1-13.4-13.5 0-7.4 6-13.5 13.4-13.5 3.6 0 7 1.4 9.6 4 1.1 1.1 1.1 2.9 0 4-1.2 1.2-3 1.2-4.1 0-1.5-1.4-3.4-2.2-5.5-2.2-4.2 0-7.7 3.4-7.7 7.7 0 4.3 3.5 7.7 7.7 7.7 2.1 0 4-0.8 5.5-2.2zm10.3-19c1.6 0 2.9 1.3 2.9 2.9v21.2c0 1.6-1.3 2.9-2.9 2.9-1.5 0-2.8-1.3-2.8-2.9v-21.2c0-1.6 1.3-2.9 2.8-2.9zm-2.6-5.7q-0.1-0.3-0.2-0.6 0-0.2 0-0.5 0-0.3 0-0.6 0.1-0.2 0.2-0.5 0.1-0.3 0.3-0.5 0.1-0.2 0.3-0.4 0.2-0.2 0.5-0.4 0.2-0.2 0.4-0.3 0.3-0.1 0.6-0.1c0.9-0.2 1.9 0.1 2.6 0.8q0.2 0.2 0.3 0.4 0.2 0.2 0.3 0.5 0.1 0.3 0.2 0.5 0 0.3 0 0.6 0 0.3 0 0.5-0.1 0.3-0.2 0.6-0.1 0.2-0.3 0.5-0.1 0.2-0.3 0.4-0.2 0.2-0.5 0.4-0.2 0.1-0.5 0.2-0.2 0.2-0.5 0.2-0.3 0.1-0.6 0.1-0.2 0-0.5-0.1-0.3 0-0.6-0.2-0.2-0.1-0.4-0.2-0.3-0.2-0.5-0.4-0.2-0.2-0.3-0.4-0.2-0.3-0.3-0.5zm32.2 5.7c1.6 0 2.9 1.3 2.9 2.9v21.2c0 1.6-1.3 2.9-2.9 2.9-1.5 0-2.7-1.1-2.9-2.5-2.1 1.6-4.8 2.5-7.7 2.5-7.4 0-13.5-6.1-13.5-13.5 0-7.4 6.1-13.5 13.5-13.5 2.9 0 5.6 0.9 7.7 2.5 0.2-1.4 1.4-2.5 2.9-2.5zm-10.6 21.2c4.2 0 7.7-3.4 7.7-7.7 0-4.3-3.5-7.7-7.7-7.7-4.3 0-7.7 3.4-7.7 7.7 0 4.3 3.4 7.7 7.7 7.7zm44-19.5c0 2.5-0.8 5-2.3 6.9 1.5 2 2.3 4.4 2.3 7 0 6.3-5.1 11.4-11.3 11.4h-3c-0.8 0-1.5-0.3-2-0.9l-10.8-10.8c-1.2-1.1-1.2-2.9 0-4.1 1.1-1.1 2.9-1.1 4 0l10 10h1.8c3.1 0 5.6-2.5 5.6-5.6 0-1.8-0.9-3.6-2.4-4.6-0.8-0.5-1.2-1.4-1.2-2.4 0-0.9 0.4-1.8 1.2-2.3 1.5-1.1 2.4-2.8 2.4-4.6 0-3.1-2.5-5.6-5.6-5.6h-10.9v5.2l9.9 9.9c1.2 1.2 1.2 3 0 4.1-1.1 1.1-2.9 1.1-4 0l-10.8-10.8c-0.6-0.5-0.9-1.3-0.9-2v-9.3c0-1.6 1.3-2.9 2.9-2.9h13.8c6.2 0 11.3 5.1 11.3 11.4zm16-1.7c7.5 0 13.5 6.1 13.5 13.5 0 1.6-1.3 2.9-2.9 2.9h-17.7c1.1 2.8 3.9 4.8 7.1 4.8 2.1 0 4-0.8 5.5-2.2 1.1-1.2 2.9-1.2 4.1 0 1.1 1.1 1.1 2.9 0 4-2.6 2.6-6 4-9.6 4-7.4 0-13.4-6.1-13.4-13.5 0-7.4 6-13.5 13.4-13.5zm-7.1 10.6h14.3c-1.1-2.8-3.9-4.8-7.2-4.8-3.2 0-6 2-7.1 4.8zm48.7-10.6c5.8 0 10.5 4.7 10.5 10.5v13.6c0 1.6-1.3 2.9-2.9 2.9-1.6 0-2.9-1.3-2.9-2.9v-13.6c0-2.6-2.1-4.7-4.7-4.7-2.5 0-4.7 2.1-4.7 4.7v13.6c0 1.6-1.2 2.9-2.8 2.9-1.6 0-2.9-1.3-2.9-2.9v-13.6c0-2.6-2.1-4.7-4.7-4.7-2.6 0-4.7 2.1-4.7 4.7v13.6c0 1.6-1.3 2.9-2.9 2.9-1.6 0-2.8-1.3-2.8-2.9v-21.2c0-1.6 1.2-2.9 2.8-2.9 1.1 0 2 0.6 2.5 1.4 1.5-0.9 3.2-1.4 5.1-1.4 3 0 5.7 1.3 7.6 3.3 1.9-2 4.6-3.3 7.5-3.3z"/></svg>